<?xml version="1.0" encoding="UTF-8"?>
<svg version="1.1" xmlns="http://www.w3.org/2000/svg" width="500" height="500">
<path d="M0 0 C14.85 0 29.7 0 45 0 C45 80.52 45 161.04 45 244 C51.5195938 242.41494012 51.5195938 242.41494012 55.71875 238.5859375 C56.34136719 237.90660156 56.96398437 237.22726562 57.60546875 236.52734375 C58.23066406 235.81707031 58.85585938 235.10679687 59.5 234.375 C60.12519531 233.68792969 60.75039063 233.00085938 61.39453125 232.29296875 C65.12499588 228.17632766 68.77123798 223.98500393 72.42382812 219.79931641 C74.42699382 217.51255507 76.459608 215.25356729 78.5 213 C81.15113994 210.06321535 83.78290171 207.11397458 86.375 204.125 C88.85037558 201.27717207 91.3855591 198.49255167 93.95043945 195.72509766 C98.01370017 191.33942225 101.94116395 186.91512658 105.6875 182.25 C108.31850881 178.97876346 110.98770166 175.92317709 114 173 C116.93174761 170.15431151 119.51762378 167.1965548 122.0625 164 C126.60043372 158.34139396 131.5088989 153.08656759 136.50805664 147.83398438 C140.23542941 143.91261644 143.85648787 139.9234557 147.40185547 135.83666992 C150.21003908 132.60936084 153.10380998 129.45945338 155.984375 126.296875 C158.00063615 124.11537752 158.00063615 124.11537752 159.3494873 121.89155579 C161 120 161 120 163.0489502 119.47428894 C163.83265991 119.46239029 164.61636963 119.45049164 165.42382812 119.43823242 C166.76036438 119.40381294 166.76036438 119.40381294 168.12390137 119.36869812 C169.08332642 119.36433243 170.04275146 119.35996674 171.03125 119.35546875 C172.01871216 119.33656082 173.00617432 119.31765289 174.02355957 119.298172 C176.11143241 119.26166041 178.19948727 119.23453336 180.28759766 119.21606445 C183.48790537 119.18760754 186.6868675 119.13256124 189.88671875 119.07226562 C191.91403852 119.04011694 193.94138273 119.00946747 195.96875 118.98046875 C196.92817505 118.9659819 197.8876001 118.95149506 198.87609863 118.93656921 C199.7671228 118.9293837 200.65814697 118.92219818 201.57617188 118.91479492 C202.35988159 118.90687424 203.14359131 118.89895355 203.9510498 118.89079285 C206 119 206 119 209 120 C209.25 126.625 209.25 126.625 207 130 C206.34 130 205.68 130 205 130 C204.75636719 130.56203125 204.51273438 131.1240625 204.26171875 131.703125 C202.75819064 134.44019785 200.93300252 136.45795941 198.8125 138.75 C197.60207031 140.07064453 197.60207031 140.07064453 196.3671875 141.41796875 C195.58601562 142.27003906 194.80484375 143.12210938 194 144 C192.80745278 145.34972395 191.61947148 146.70350514 190.4375 148.0625 C187.97442207 150.88963563 185.49377266 153.69989058 183 156.5 C180.48703056 159.32225799 177.98522715 162.15328526 175.5 165 C172.34394317 168.61511965 169.15648509 172.20145149 165.96484375 175.78515625 C164.153483 177.82698835 162.35546807 179.87952048 160.5625 181.9375 C157.9032688 184.98440955 155.20919191 187.9974269 152.5 191 C149.19996402 194.65800598 145.92987065 198.33870674 142.6953125 202.0546875 C141.50716254 203.41804851 140.31401869 204.77706597 139.1171875 206.1328125 C138.50101563 206.83148438 137.88484375 207.53015625 137.25 208.25 C136.69828125 208.87390625 136.1465625 209.4978125 135.578125 210.140625 C133.93947553 212.0155897 133.93947553 212.0155897 132.421875 214.234375 C131.71804688 215.10835938 131.71804688 215.10835938 131 216 C130.34 216 129.68 216 129 216 C128.75636719 216.56203125 128.51273438 217.1240625 128.26171875 217.703125 C126.75819064 220.44019785 124.93300252 222.45795941 122.8125 224.75 C122.00554687 225.63042969 121.19859375 226.51085937 120.3671875 227.41796875 C119.58601563 228.27003906 118.80484375 229.12210938 118 230 C116.80745278 231.34972395 115.61947148 232.70350514 114.4375 234.0625 C111.97442207 236.88963563 109.49377266 239.69989058 107 242.5 C104.39098494 245.43324218 101.78300213 248.36728811 99.1875 251.3125 C98.64480469 251.92738281 98.10210937 252.54226563 97.54296875 253.17578125 C95.14869636 255.9949144 95.14869636 255.9949144 93 259 C93.61141128 261.57114212 93.61141128 261.57114212 95 264 C95.37125 264.763125 95.7425 265.52625 96.125 266.3125 C96.41375 266.869375 96.7025 267.42625 97 268 C97.66 268 98.32 268 99 268 C100.45659977 269.61382948 101.84048951 271.29363216 103.1875 273 C106.59707271 277.27575866 110.08991176 281.41099219 113.78515625 285.44140625 C115 287 115 287 115 289 C115.66 289 116.32 289 117 289 C118.41438406 290.57286684 119.75604401 292.21139996 121.0625 293.875 C124.873511 298.64491054 128.82879996 303.2142484 132.95703125 307.7109375 C139 314.48183556 139 314.48183556 139 317 C139.66 317 140.32 317 141 317 C145 321.47058824 145 321.47058824 145 324 C145.66 324 146.32 324 147 324 C148.47769218 325.63432755 149.88269319 327.33476368 151.25 329.0625 C153.9594861 332.45920632 156.67800145 335.81313648 159.5625 339.0625 C162 342 162 342 162 344 C162.66 344 163.32 344 164 344 C165.41438406 345.57286684 166.75604401 347.21139996 168.0625 348.875 C171.12839758 352.71228527 174.24537654 356.44015511 177.5625 360.0625 C181.23049332 364.08710378 184.64209994 368.25341904 188.00390625 372.53515625 C190.71136988 375.87842347 193.60462695 379.0357521 196.53125 382.1875 C198 384 198 384 198 386 C198.66 386 199.32 386 200 386 C203 389.46153846 203 389.46153846 203 392 C203.66 392 204.32 392 205 392 C209 396.47058824 209 396.47058824 209 399 C209.66 399 210.32 399 211 399 C215 403.47058824 215 403.47058824 215 406 C215.66 406 216.32 406 217 406 C219.00696487 407.85258295 219.94867576 409.23778837 220.13427734 411.99414062 C220.08951823 413.99609375 220.04475911 415.99804688 220 418 C213.00779391 418.17792768 206.01617425 418.30025694 199.0222168 418.38452148 C196.64471624 418.41965856 194.26736623 418.46737953 191.89038086 418.52807617 C188.466907 418.61328709 185.04543693 418.65275737 181.62109375 418.68359375 C180.0347538 418.73778725 180.0347538 418.73778725 178.41636658 418.79307556 C173.02346343 418.79592543 169.84817764 418.50857278 165.9152832 414.62402344 C164.91360106 413.44070804 163.93829328 412.2341832 163 411 C162.25234375 410.11957031 161.5046875 409.23914063 160.734375 408.33203125 C160.07953125 407.50058594 159.4246875 406.66914063 158.75 405.8125 C155.46679097 401.73082347 152.06761726 397.82984178 148.5 394 C144.21016838 389.39023112 140.1958729 384.62214512 136.24609375 379.71484375 C133.9116941 376.89326505 131.48009402 374.19409288 129 371.5 C124.90648909 367.05272888 121.07557501 362.45282537 117.28125 357.75 C114.93281032 354.91900422 112.49090098 352.20616402 110 349.5 C105.90648909 345.05272888 102.07557501 340.45282537 98.28125 335.75 C95.93281032 332.91900422 93.49090098 330.20616402 91 327.5 C86.90648909 323.05272888 83.07557501 318.45282537 79.28125 313.75 C76.93281032 310.91900422 74.49090098 308.20616402 72 305.5 C68.62997332 301.83692752 65.39282329 298.10997759 62.25 294.25 C61.51523437 293.35023438 60.78046875 292.45046875 60.0234375 291.5234375 C58.77407248 289.96534907 57.54531327 288.3901595 56.3515625 286.7890625 C55.86429687 286.15742188 55.37703125 285.52578125 54.875 284.875 C54.28332031 284.06675781 54.28332031 284.06675781 53.6796875 283.2421875 C51.39713808 281.34849639 51.39713808 281.34849639 45 281 C45 326.21 45 371.42 45 418 C30.15 418 15.3 418 0 418 C0 280.06 0 142.12 0 0 Z " fill="#FDFDFC" transform="translate(276,66)"/>
<path d="M0 0 C13.86 0 27.72 0 42 0 C42 67.98 42 135.96 42 206 C48.14608652 204.67963185 48.14608652 204.67963185 51.88671875 201.19921875 C52.57278198 200.36124756 52.57278198 200.36124756 53.27270508 199.50634766 C53.97302856 198.60601807 53.97302856 198.60601807 54.6875 197.6875 C55.72418289 196.41602485 56.76331258 195.14654135 57.8046875 193.87890625 C58.33030273 193.23324707 58.85591797 192.58758789 59.39746094 191.92236328 C61.92696249 188.88804043 64.61211125 186.00689169 67.3125 183.125 C70.99852853 179.17057702 74.62418405 175.17912211 78.16015625 171.08984375 C80.56670539 168.35629006 83.03321846 165.67903563 85.5 163 C90.68163615 157.36555734 95.74667719 151.65021748 100.70703125 145.8203125 C106.53029366 138.98373018 112.44629143 132.26569674 118.54296875 125.671875 C121.16530261 122.82024327 123.71988319 119.91869929 126.2578125 116.9921875 C128.31500399 114.63979365 130.40596915 112.31965034 132.5 110 C139.54120636 102.61648952 139.54120636 102.61648952 145.52197266 94.4284668 C149.16480178 90.85849425 152.32623728 91.25328947 157.25390625 91.2578125 C158.15116928 91.24031952 159.04843231 91.22282654 159.97288513 91.20480347 C162.83627793 91.15526418 165.6987418 91.14038492 168.5625 91.125 C170.49417681 91.09327745 172.42582023 91.05944736 174.35742188 91.0234375 C181.43447266 90.91619721 181.43447266 90.91619721 184.95922852 90.89892578 C186.02367943 90.89156906 186.02367943 90.89156906 187.1096344 90.88406372 C189 91 189 91 192 92 C192.37510147 96.15694643 192.47213449 98.31697244 190.05859375 101.80859375 C188.76115234 103.10990234 188.76115234 103.10990234 187.4375 104.4375 C186.50465136 105.39919963 185.57236102 106.36144112 184.640625 107.32421875 C183.33351562 108.64873047 183.33351562 108.64873047 182 110 C180.88277377 111.23834146 179.77698733 112.48718514 178.6875 113.75 C178.1409375 114.37777344 177.594375 115.00554687 177.03125 115.65234375 C175.36288903 117.58058403 173.69670728 119.51065948 172.03125 121.44140625 C166.17417366 128.22525168 160.27375177 134.95057123 154.22265625 141.5625 C148.55946486 147.67261933 148.55946486 147.67261933 143.43359375 154.22265625 C142.96050781 154.80917969 142.48742187 155.39570313 142 156 C141.34 156 140.68 156 140 156 C139.75378906 156.56589844 139.50757813 157.13179687 139.25390625 157.71484375 C137.78463776 160.39248258 136.02247565 162.33043612 133.9375 164.5625 C129.82694007 169.04254846 125.96094093 173.66882199 122.1328125 178.390625 C117.66147994 183.86104652 112.99443568 189.00556432 108 194 C102.56959768 199.91379041 97.27134399 205.94458883 92 212 C90.68786505 213.50031934 89.37537249 215.00032601 88.0625 216.5 C87.47597656 217.1703125 86.88945313 217.840625 86.28515625 218.53125 C85.86105469 219.0159375 85.43695313 219.500625 85 220 C88.88801222 225.45846421 93.13935215 230.43290311 97.65625 235.37890625 C100.74570343 238.833945 103.64549742 242.4266687 106.5625 246.02734375 C109.2689117 249.32795161 112.03044865 252.5756601 114.8125 255.8125 C115.31595947 256.39837891 115.81941895 256.98425781 116.33813477 257.58789062 C118.41580687 260.00300749 120.49590239 262.41602063 122.57763672 264.82763672 C124.13644988 266.63392658 125.69381408 268.44144626 127.25 270.25 C127.74999512 270.83104492 128.24999023 271.41208984 128.76513672 272.01074219 C132.34888895 276.19436014 135.80948799 280.46101694 139.18359375 284.81640625 C141.02796748 287.10128795 141.02796748 287.10128795 143.40625 289.40625 C146.12445183 292.12445183 148.60546897 294.9869763 151.0625 297.9375 C152.03343538 299.09410169 153.00480461 300.25033928 153.9765625 301.40625 C154.72341309 302.29570313 154.72341309 302.29570313 155.48535156 303.203125 C157.95206191 306.12946093 160.44416676 309.03384561 162.9375 311.9375 C163.68495483 312.80846313 163.68495483 312.80846313 164.44750977 313.69702148 C165.45950851 314.8760855 166.47163428 316.0550405 167.48388672 317.23388672 C169.49150941 319.57255701 171.49733271 321.91276628 173.50292969 324.25317383 C174.49946014 325.41595521 175.49620432 326.57855346 176.49316406 327.7409668 C179.03443768 330.70426447 181.5726075 333.67013235 184.10546875 336.640625 C189.43373938 342.88310497 194.80166803 349.06523873 200.35546875 355.109375 C203.22925201 358.41320183 203.18348352 360.68813721 203 365 C201.46489112 366.53510888 200.02297389 366.1798188 197.88256836 366.24047852 C196.5700132 366.27909752 196.5700132 366.27909752 195.23094177 366.3184967 C191.20008338 366.40272156 187.16941554 366.4686109 183.13793945 366.51489258 C181.0165407 366.54644897 178.89531609 366.59411546 176.7746582 366.65844727 C173.71238006 366.75009785 170.65328998 366.78858108 167.58984375 366.81640625 C166.18000465 366.87363609 166.18000465 366.87363609 164.74168396 366.93202209 C159.21763016 366.91586781 156.46878123 366.06413337 152.48803711 362.12402344 C151.29776136 360.77317329 150.13158737 359.40037941 149 358 C148.20851562 357.07574219 147.41703125 356.15148437 146.6015625 355.19921875 C145.94929687 354.37035156 145.29703125 353.54148437 144.625 352.6875 C141.5327172 348.8354295 138.34755073 345.13255892 135 341.5 C121.65479115 326.96437346 121.65479115 326.96437346 120 322 C119.01 321.67 118.02 321.34 117 321 C114 317.55555556 114 317.55555556 114 315 C113.01 314.67 112.02 314.34 111 314 C106 308.53488372 106 308.53488372 106 306 C105.34 306 104.68 306 104 306 C100 301.52941176 100 301.52941176 100 299 C99.34 299 98.68 299 98 299 C94 294.52941176 94 294.52941176 94 292 C93.34 292 92.68 292 92 292 C88 287.52941176 88 287.52941176 88 285 C87.01 284.67 86.02 284.34 85 284 C83.54092979 282.38840371 82.15457379 280.71025332 80.8125 279 C77.17619816 274.42779752 73.40594118 270.05942587 69.43359375 265.77734375 C68 264 68 264 68 262 C67.34 262 66.68 262 66 262 C62 257.52941176 62 257.52941176 62 255 C61.34 255 60.68 255 60 255 C58.125 252.953125 58.125 252.953125 56 250.25 C54.948125 248.92742187 54.948125 248.92742187 53.875 247.578125 C52.30692317 245.42201936 51.08673516 243.42251379 50 241 C49.34 241 48.68 241 48 241 C48 240.34 48 239.68 48 239 C46.02 239 44.04 239 42 239 C42.00092179 239.64844848 42.00184359 240.29689695 42.00279331 240.96499538 C42.02484849 256.7210841 42.04141152 272.47716747 42.05181217 288.23326778 C42.05697514 295.85270173 42.06401784 303.47212539 42.07543945 311.09155273 C42.08538628 317.73028827 42.09185342 324.36901637 42.09408849 331.00775915 C42.09539561 334.52504336 42.09848147 338.04230626 42.10573006 341.55958366 C42.11374389 345.47974938 42.11399114 349.39989399 42.11352539 353.32006836 C42.11712067 354.49466614 42.12071594 355.66926392 42.12442017 356.87945557 C42.1230455 357.94101364 42.12167084 359.00257172 42.12025452 360.09629822 C42.12117631 361.02454375 42.1220981 361.95278929 42.12304783 362.90916348 C42 365 42 365 41 366 C38.0546443 366.10110353 35.1332244 366.13969279 32.1875 366.1328125 C30.86141724 366.13424759 30.86141724 366.13424759 29.50854492 366.13571167 C27.63557871 366.13639351 25.76261014 366.13453893 23.88964844 366.13037109 C21.01231612 366.12502289 18.13513992 366.13031593 15.2578125 366.13671875 C13.44270799 366.13605797 11.62760357 366.13477681 9.8125 366.1328125 C8.94584717 366.13483673 8.07919434 366.13686096 7.1862793 366.13894653 C1.11495009 366.11495009 1.11495009 366.11495009 0 365 C-0.09771753 363.06089794 -0.12371298 361.11817444 -0.12304783 359.1766119 C-0.12503888 357.90318147 -0.12702993 356.62975103 -0.12908131 355.3177318 C-0.12622771 353.88613234 -0.1232821 352.45453306 -0.12025452 351.02293396 C-0.12069009 349.51651859 -0.12156473 348.01010329 -0.12284368 346.5036884 C-0.12509145 342.34436372 -0.12106353 338.18506455 -0.11606562 334.02574313 C-0.11176533 329.54787292 -0.11320724 325.07000426 -0.1139679 320.59213257 C-0.1144934 312.82733759 -0.11134385 305.06255098 -0.10573006 297.2977581 C-0.09761862 286.07103582 -0.0950002 274.8443176 -0.09374207 263.6175927 C-0.09155098 245.40497161 -0.08488938 227.19235499 -0.07543945 208.97973633 C-0.06626679 191.28312197 -0.05918524 173.58650883 -0.05493164 155.88989258 C-0.05466892 154.79990192 -0.05440619 153.70991125 -0.05413551 152.58689057 C-0.05283051 147.1189752 -0.0515668 141.65105983 -0.05032361 136.18314445 C-0.03994924 90.78875971 -0.02205507 45.39438044 0 0 Z " fill="#FCFCFC" transform="translate(38,0)"/>
<path d="M0 0 C0 2.31 0 4.62 0 7 C-0.33 7 -0.66 7 -1 7 C-1 5.02 -1 3.04 -1 1 C-15.85 1 -30.7 1 -46 1 C-46 1.66 -46 2.32 -46 3 C-47.609375 4.62109375 -47.609375 4.62109375 -49.75 6.4375 C-50.79414063 7.33275391 -50.79414063 7.33275391 -51.859375 8.24609375 C-53.86673589 9.89081098 -55.91070312 11.46126108 -58 13 C-55.4508572 7.67958677 -53.02113643 3.32730957 -48 0 C-41.71805027 -1.66802323 -35.00474094 -1.21232042 -28.5625 -1.125 C-26.7961934 -1.13667056 -25.02990814 -1.15226286 -23.26367188 -1.171875 C-15.41313497 -1.22176285 -7.7982037 -0.96805287 0 0 Z " fill="#DED7D5" transform="translate(485,186)"/>
<path d="M0 0 C0 4.09455608 -1.64051458 5.33557943 -4.25 8.4375 C-5.03890625 9.38496094 -5.8278125 10.33242188 -6.640625 11.30859375 C-8.68309909 13.6385021 -10.77721881 15.8434944 -13 18 C-13.66 17.67 -14.32 17.34 -15 17 C-14.16855469 16.10796875 -13.33710938 15.2159375 -12.48046875 14.296875 C-11.38271261 13.11467608 -10.2850619 11.93237926 -9.1875 10.75 C-8.64029297 10.16347656 -8.09308594 9.57695312 -7.52929688 8.97265625 C-4.85219687 6.08463321 -2.27491168 3.22478709 0 0 Z " fill="#E2DBDC" transform="translate(362,270)"/>
<path d="M0 0 C0 2 0 2 -1.609375 3.62109375 C-2.66898437 4.52021484 -2.66898437 4.52021484 -3.75 5.4375 C-4.79414063 6.33275391 -4.79414063 6.33275391 -5.859375 7.24609375 C-7.86673589 8.89081098 -9.91070312 10.46126108 -12 12 C-10.56869725 8.83831632 -8.82485862 6.37725517 -6.5625 3.75 C-5.96566406 3.04359375 -5.36882812 2.3371875 -4.75390625 1.609375 C-3 0 -3 0 0 0 Z " fill="#E1DEDD" transform="translate(439,187)"/>
</svg>
